<?xml version="1.0" encoding="UTF-8" standalone="no"?>
<svg
   xmlns:dc="http://purl.org/dc/elements/1.1/"
   xmlns:cc="http://creativecommons.org/ns#"
   xmlns:rdf="http://www.w3.org/1999/02/22-rdf-syntax-ns#"
   xmlns:svg="http://www.w3.org/2000/svg"
   xmlns="http://www.w3.org/2000/svg"
   xmlns:sodipodi="http://sodipodi.sourceforge.net/DTD/sodipodi-0.dtd"
   xmlns:inkscape="http://www.inkscape.org/namespaces/inkscape"
   version="1.0"
   width="800.000000pt"
   height="636.000000pt"
   viewBox="0 0 800.000000 636.000000"
   preserveAspectRatio="xMidYMid meet"
   id="svg118"
   sodipodi:docname="logo.svg"
   inkscape:version="1.0.2-2 (e86c870879, 2021-01-15)">
  <metadata
     id="metadata124">
    <rdf:RDF>
      <cc:Work
         rdf:about="">
        <dc:format>image/svg+xml</dc:format>
        <dc:type
           rdf:resource="http://purl.org/dc/dcmitype/StillImage" />
        <dc:title></dc:title>
      </cc:Work>
    </rdf:RDF>
  </metadata>
  <defs
     id="defs122" />
  <sodipodi:namedview
     pagecolor="#ffffff"
     bordercolor="#666666"
     borderopacity="1"
     objecttolerance="10"
     gridtolerance="10"
     guidetolerance="10"
     inkscape:pageopacity="0"
     inkscape:pageshadow="2"
     inkscape:window-width="1920"
     inkscape:window-height="1013"
     id="namedview120"
     showgrid="false"
     inkscape:zoom="1.7334906"
     inkscape:cx="513.00668"
     inkscape:cy="408.89093"
     inkscape:window-x="-9"
     inkscape:window-y="-9"
     inkscape:window-maximized="1"
     inkscape:current-layer="svg118" />
  <g
     transform="translate(0.000000,636.000000) scale(0.100000,-0.100000)"
     fill="#000000"
     stroke="none"
     id="g116"
     style="fill:#305d2c">
    <path
       d="M3605 4735 c-360 -66 -690 -316 -850 -643 -91 -185 -140 -488 -106 -645 5 -23 15 -69 21 -102 51 -260 203 -496 429 -665 216 -163 440 -240 696 -240 306 0 580 110 801 322 112 108 172 189 239 323 82 163 117 308 117 485 1 145 -18 278 -54 384 -137 407 -490 707 -916 781 -101 18 -280 18 -377 0z m395 -41 c224 -42 423 -146 577 -302 222 -225 333 -494 333 -808 0 -289 -118 -573 -325 -779 -164 -163 -390 -279 -617 -315 -122 -20 -341 -8 -457 24 -371 104 -666 388 -775 748 -74 242 -73 449 5 688 71 219 238 442 424 567 126 85 289 152 430 178 99 19 306 18 405 -1z"
       id="path2"
       style="fill:#305d2c" />
    <path
       d="M3796 4662 c-8 -13 36 -24 48 -12 7 7 6 10 -1 10 -6 0 -18 3 -26 6 -8 3 -18 1 -21 -4z"
       id="path4"
       style="fill:#305d2c" />
    <path
       d="M3645 4650 c-4 -6 7 -10 24 -10 17 0 31 5 31 10 0 6 -11 10 -24 10 -14 0 -28 -4 -31 -10z"
       id="path6"
       style="fill:#305d2c" />
    <path
       d="M3960 4640 c20 -13 53 -13 45 0 -3 6 -18 10 -33 10 -21 0 -24 -2 -12 -10z"
       id="path8"
       style="fill:#305d2c" />
    <path
       d="M3495 4620 c-3 -6 5 -10 19 -10 14 0 28 5 31 10 3 6 -5 10 -19 10 -14 0 -28 -4 -31 -10z"
       id="path10"
       style="fill:#305d2c" />
    <path
       d="M4096 4611 c5 -5 20 -12 34 -15 24 -7 24 -6 6 8 -21 17 -57 23 -40 7z"
       id="path12"
       style="fill:#305d2c" />
    <path
       d="M3360 4570 c-12 -8 -11 -10 7 -10 12 0 25 5 28 10 8 13 -15 13 -35 0z"
       id="path14"
       style="fill:#305d2c" />
    <path
       d="M4240 4561 c0 -10 24 -21 43 -21 7 0 3 7 -7 15 -22 17 -36 19 -36 6z"
       id="path16"
       style="fill:#305d2c" />
    <path
       d="M3230 4505 c-8 -9 -8 -15 -2 -15 18 0 42 12 42 21 0 14 -26 10 -40 -6z"
       id="path18"
       style="fill:#305d2c" />
    <path
       d="M4380 4475 c7 -8 20 -15 29 -15 13 1 13 3 -3 15 -26 19 -42 19 -26 0z"
       id="path20"
       style="fill:#305d2c" />
    <path
       d="M3110 4420 c-8 -5 -12 -12 -8 -15 9 -9 48 4 48 16 0 12 -21 11 -40 -1z"
       id="path22"
       style="fill:#305d2c" />
    <path
       d="M4492 4388 c3 -7 15 -14 29 -16 23 -2 23 -2 5 13 -24 18 -39 20 -34 3z"
       id="path24"
       style="fill:#305d2c" />
    <path
       d="M3000 4315 c-10 -12 -10 -15 3 -15 8 0 20 7 27 15 10 12 10 15 -3 15 -8 0 -20 -7 -27 -15z"
       id="path26"
       style="fill:#305d2c" />
    <path
       d="M3725 4291 c-230 -28 -437 -170 -546 -374 -115 -216 -100 -514 37 -714 43 -61 153 -167 205 -197 l34 -19 -21 24 c-34 39 -81 132 -100 195 -12 43 -15 81 -12 146 5 74 11 98 41 160 43 88 62 112 80 105 25 -9 94 -124 118 -194 32 -94 33 -253 1 -332 -12 -30 -19 -57 -17 -59 10 -10 303 297 346 363 127 191 236 481 254 675 3 36 8 79 11 95 4 28 0 33 -42 53 -46 23 -68 22 -46 0 16 -16 16 -205 1 -282 -7 -31 -14 -54 -17 -52 -2 3 -6 29 -9 58 -7 83 -30 172 -62 240 -37 82 -63 108 -105 108 -18 0 -46 2 -62 4 -16 2 -56 1 -89 -3z m175 -238 c82 -87 105 -148 105 -280 0 -122 -8 -135 -58 -104 -19 12 -51 39 -71 61 -90 99 -122 190 -113 317 3 46 9 88 12 93 10 17 62 -20 125 -87z m-109 -416 c18 -35 21 -54 17 -136 -4 -87 -8 -103 -41 -168 -21 -40 -41 -73 -46 -73 -15 0 -98 179 -111 239 -17 72 -8 136 31 218 l32 68 49 -54 c27 -29 58 -71 69 -94z"
       id="path28"
       style="fill:#305d2c" />
    <path
       d="M4600 4275 c7 -8 20 -15 29 -15 13 1 13 3 -3 15 -26 19 -42 19 -26 0z"
       id="path30"
       style="fill:#305d2c" />
    <path
       d="M2910 4195 c-7 -9 -10 -18 -7 -22 8 -7 37 15 37 28 0 14 -16 11 -30 -6z"
       id="path32"
       style="fill:#305d2c" />
    <path
       d="M4680 4162 c0 -4 9 -13 20 -20 16 -10 20 -10 20 2 0 8 -7 17 -16 20 -20 8 -24 8 -24 -2z"
       id="path34"
       style="fill:#305d2c" />
    <path
       d="M4226 4080 c-19 -140 -110 -412 -188 -564 -45 -86 -131 -211 -181 -264 l-32 -34 40 7 c22 4 58 11 80 15 50 11 120 -3 204 -41 l65 -29 -50 -51 c-27 -28 -78 -64 -114 -82 -59 -29 -73 -32 -160 -32 -74 0 -110 5 -163 23 l-67 24 -49 -41 c-81 -68 -81 -67 -14 -88 79 -24 323 -25 400 -1 234 74 419 266 479 498 20 79 23 250 5 335 -14 67 -86 225 -102 225 -6 0 -35 -21 -65 -46 -30 -26 -57 -44 -60 -41 -3 3 11 43 31 89 l37 83 -39 32 c-21 18 -41 33 -44 33 -4 0 -9 -23 -13 -50z m152 -269 c7 -72 -60 -175 -135 -207 -38 -16 -119 -19 -128 -4 -3 6 8 40 26 76 36 74 94 129 161 156 59 23 72 20 76 -21z m6 -308 c-24 -100 -120 -186 -223 -200 -36 -5 -103 9 -131 26 -12 9 -12 13 0 38 25 47 98 113 153 138 40 18 70 24 130 24 l77 1 -6 -27z"
       id="path36"
       style="fill:#305d2c" />
    <path
       d="M2830 4060 c-9 -16 -8 -20 5 -20 8 0 15 2 15 4 0 2 3 11 6 20 9 23 -13 20 -26 -4z"
       id="path38"
       style="fill:#305d2c" />
    <path
       d="M4750 4032 c0 -11 22 -32 32 -32 5 0 4 9 -2 20 -11 20 -30 28 -30 12z"
       id="path40"
       style="fill:#305d2c" />
    <path
       d="M2776 3924 c-9 -22 3 -32 14 -14 12 19 12 30 1 30 -5 0 -12 -7 -15 -16z"
       id="path42"
       style="fill:#305d2c" />
    <path
       d="M4810 3890 c0 -21 17 -46 25 -38 4 4 0 17 -9 30 -10 14 -16 17 -16 8z"
       id="path44"
       style="fill:#305d2c" />
    <path
       d="M2746 3782 c-4 -13 -5 -26 -2 -29 10 -11 18 4 14 29 l-4 23 -8 -23z"
       id="path46"
       style="fill:#305d2c" />
    <path
       d="M4840 3731 c0 -11 5 -23 10 -26 6 -4 10 5 10 19 0 14 -4 26 -10 26 -5 0 -10 -9 -10 -19z"
       id="path48"
       style="fill:#305d2c" />
    <path
       d="M2729 3646 c-5 -27 -1 -50 9 -54 15 -5 17 44 2 53 -5 3 -10 4 -11 1z"
       id="path50"
       style="fill:#305d2c" />
    <path
       d="M4850 3570 c0 -11 5 -20 10 -20 6 0 10 9 10 20 0 11 -4 20 -10 20 -5 0 -10 -9 -10 -20z"
       id="path52"
       style="fill:#305d2c" />
    <path
       d="M2730 3470 c13 -24 35 -27 26 -4 -3 9 -6 18 -6 20 0 2 -7 4 -15 4 -13 0 -14 -4 -5 -20z"
       id="path54"
       style="fill:#305d2c" />
    <path
       d="M4837 3420 c-3 -11 -2 -20 3 -20 4 0 10 9 13 20 3 11 2 20 -3 20 -4 0 -10 -9 -13 -20z"
       id="path56"
       style="fill:#305d2c" />
    <path
       d="M2760 3321 c13 -25 33 -28 28 -4 -2 10 -11 19 -21 21 -16 3 -17 1 -7 -17z"
       id="path58"
       style="fill:#305d2c" />
    <path
       d="M4797 3276 c-6 -16 2 -28 14 -20 12 7 11 34 0 34 -5 0 -11 -6 -14 -14z"
       id="path60"
       style="fill:#305d2c" />
    <path
       d="M2800 3191 c0 -13 29 -35 37 -28 7 8 -15 37 -28 37 -5 0 -9 -4 -9 -9z"
       id="path62"
       style="fill:#305d2c" />
    <path
       d="M4741 3137 c-6 -8 -8 -17 -4 -20 7 -8 33 11 33 24 0 13 -16 11 -29 -4z"
       id="path64"
       style="fill:#305d2c" />
    <path
       d="M2880 3040 c13 -24 35 -27 26 -4 -3 9 -6 18 -6 20 0 2 -7 4 -15 4 -13 0 -14 -4 -5 -20z"
       id="path66"
       style="fill:#305d2c" />
    <path
       d="M4670 3005 c-20 -24 -5 -28 21 -6 19 16 20 20 8 21 -9 0 -22 -7 -29 -15z"
       id="path68"
       style="fill:#305d2c" />
    <path
       d="M2973 2913 c9 -9 20 -13 24 -9 4 4 1 11 -7 16 -25 16 -35 11 -17 -7z"
       id="path70"
       style="fill:#305d2c" />
    <path
       d="M4575 2887 c-11 -8 -14 -16 -8 -20 6 -4 18 2 28 13 21 23 8 27 -20 7z"
       id="path72"
       style="fill:#305d2c" />
    <path
       d="M3060 2821 c0 -10 31 -31 45 -31 11 0 -5 20 -26 30 -12 7 -19 7 -19 1z"
       id="path74"
       style="fill:#305d2c" />
    <path
       d="M4465 2779 c-12 -19 5 -23 22 -6 16 16 16 17 1 17 -9 0 -20 -5 -23 -11z"
       id="path76"
       style="fill:#305d2c" />
    <path
       d="M3194 2716 c23 -18 36 -20 36 -6 0 6 -4 10 -9 10 -5 0 -18 3 -28 6 -16 5 -16 4 1 -10z"
       id="path78"
       style="fill:#305d2c" />
    <path
       d="M4335 2690 c-3 -5 3 -10 14 -10 11 0 23 5 26 10 3 6 -3 10 -14 10 -11 0 -23 -4 -26 -10z"
       id="path80"
       style="fill:#305d2c" />
    <path
       d="M3324 2635 c22 -17 36 -19 36 -6 0 10 -24 21 -43 21 -7 0 -3 -7 7 -15z"
       id="path82"
       style="fill:#305d2c" />
    <path
       d="M4206 2621 c-11 -4 -15 -10 -10 -13 5 -4 20 0 34 8 26 14 9 18 -24 5z"
       id="path84"
       style="fill:#305d2c" />
    <path
       d="M3445 2590 c-3 -4 5 -10 18 -14 32 -8 49 -7 43 3 -8 12 -55 20 -61 11z"
       id="path86"
       style="fill:#305d2c" />
    <path
       d="M4065 2570 l-20 -9 20 0 c11 0 27 4 35 9 13 9 13 10 0 9 -8 0 -24 -4 -35 -9z"
       id="path88"
       style="fill:#305d2c" />
    <path
       d="M3600 2551 c0 -12 39 -25 48 -16 7 7 -17 25 -35 25 -7 0 -13 -4 -13 -9z"
       id="path90"
       style="fill:#305d2c" />
    <path
       d="M3900 2540 c0 -5 14 -10 30 -10 17 0 30 5 30 10 0 6 -13 10 -30 10 -16 0 -30 -4 -30 -10z"
       id="path92"
       style="fill:#305d2c" />
    <path
       d="M3758 2533 c12 -2 30 -2 40 0 9 3 -1 5 -23 4 -22 0 -30 -2 -17 -4z"
       id="path94"
       style="fill:#305d2c" />
    <path
       d="M5107 3698 c6 -102 8 -108 32 -108 16 0 20 8 23 38 l3 37 120 11 c66 7 128 12 138 13 13 1 17 7 15 24 -2 16 -9 22 -28 21 -14 -1 -78 -5 -142 -9 l-118 -8 0 32 c0 26 -4 31 -24 31 -24 0 -24 -1 -19 -82z"
       id="path96"
       style="fill:#305d2c" />
    <path
       d="M5139 3551 c-63 -64 -16 -171 74 -171 37 0 65 29 85 85 20 55 49 70 82 40 22 -20 16 -46 -16 -76 -39 -37 -26 -71 18 -48 38 19 58 51 58 96 0 84 -100 124 -161 64 -17 -17 -29 -40 -29 -55 0 -27 -23 -56 -45 -56 -20 0 -45 29 -45 53 0 11 12 33 26 48 48 50 2 69 -47 20z"
       id="path98"
       style="fill:#305d2c" />
    <path
       d="M5079 3276 l-26 -104 156 -41 c85 -22 158 -37 162 -33 11 12 50 193 43 203 -3 5 -14 9 -24 9 -19 0 -28 -20 -48 -115 -7 -35 -11 -40 -33 -36 -54 7 -59 15 -43 73 18 70 18 75 -8 81 -27 8 -32 1 -48 -70 l-12 -55 -36 7 c-21 4 -39 8 -41 10 -1 2 5 38 15 80 16 66 16 78 3 86 -28 18 -35 7 -60 -95z"
       id="path100"
       style="fill:#305d2c" />
    <path
       d="M5040 3140 c-10 -19 -4 -29 67 -96 l78 -75 -103 5 c-83 3 -105 1 -118 -11 -8 -9 -12 -19 -7 -24 8 -8 335 -30 342 -23 5 5 -140 154 -201 205 -46 39 -47 39 -58 19z"
       id="path102"
       style="fill:#305d2c" />
    <path
       d="M4920 2874 c-17 -15 -44 -46 -60 -69 l-30 -44 93 -63 c169 -116 177 -120 193 -107 22 18 18 26 -47 69 -49 34 -58 44 -48 56 13 16 56 18 117 4 29 -7 49 -7 62 0 40 21 22 37 -55 50 -74 13 -75 13 -75 44 0 36 -6 46 -40 69 -35 24 -74 21 -110 -9z m84 -30 c9 -3 16 -16 16 -28 0 -21 -34 -86 -46 -86 -11 0 -64 41 -64 50 0 15 51 70 65 70 7 0 20 -3 29 -6z"
       id="path104"
       style="fill:#305d2c" />
    <path
       d="M4740 2662 c0 -5 4 -12 9 -17 5 -6 27 -53 49 -105 90 -212 78 -193 107 -174 23 15 23 18 10 37 -13 19 -11 23 28 60 28 26 49 37 63 34 12 -2 32 4 45 14 l24 18 -25 9 c-14 6 -72 31 -130 57 -132 58 -180 76 -180 67z m203 -132 c8 -7 -38 -50 -54 -50 -9 0 -49 73 -49 89 0 9 86 -23 103 -39z"
       id="path106"
       style="fill:#305d2c" />
    <path
       d="M2959 2443 c-98 -149 -95 -143 -78 -154 26 -16 38 -9 66 41 15 27 34 50 42 50 16 0 111 -59 111 -69 0 -3 -16 -31 -36 -60 -34 -51 -36 -55 -19 -67 10 -7 21 -11 25 -9 4 3 43 59 86 125 60 92 81 117 90 107 6 -6 19 -47 29 -91 18 -79 18 -79 -5 -140 -30 -83 -30 -90 3 -94 17 -2 27 1 27 9 0 7 10 38 22 69 19 49 29 61 98 108 89 60 106 64 95 25 -4 -16 -18 -84 -30 -151 -25 -144 -30 -137 82 -137 57 0 77 4 100 21 41 30 63 80 63 146 0 46 -5 62 -26 88 -32 37 -64 51 -167 74 l-79 18 -54 -36 c-30 -20 -58 -34 -63 -32 -4 3 -14 32 -21 66 -12 56 -16 61 -58 85 -24 14 -48 25 -52 25 -4 0 -22 -22 -40 -50 -18 -27 -34 -50 -36 -50 -13 0 -114 63 -114 71 0 6 16 33 35 62 32 48 34 53 18 65 -9 6 -20 12 -24 12 -4 0 -44 -57 -90 -127z m654 -174 c49 -26 67 -51 67 -96 0 -81 -40 -123 -115 -123 -40 0 -41 4 -25 110 21 130 23 134 73 109z"
       id="path108"
       style="fill:#305d2c" />
    <path
       d="M4615 2561 c-3 -6 12 -36 34 -67 l41 -57 -53 -33 c-28 -18 -56 -34 -62 -34 -5 0 -25 22 -44 49 -28 42 -36 48 -55 42 -11 -5 -21 -12 -21 -17 0 -7 153 -241 171 -263 2 -2 15 1 29 7 l25 12 -42 60 c-22 33 -39 62 -37 63 18 12 111 67 114 67 1 0 17 -22 35 -50 31 -49 55 -61 77 -39 15 15 -154 263 -184 267 -11 2 -24 -2 -28 -7z"
       id="path110"
       style="fill:#305d2c" />
    <path
       d="M4155 2342 c-83 -29 -132 -101 -120 -174 14 -82 53 -129 126 -148 107 -29 216 73 195 183 -8 41 -41 93 -77 119 -28 21 -92 31 -124 20z m111 -73 c28 -27 46 -82 37 -118 -8 -36 -50 -79 -85 -86 -66 -15 -128 45 -128 125 0 35 6 48 35 77 32 32 40 35 76 30 23 -3 52 -16 65 -28z"
       id="path112"
       style="fill:#305d2c" />
    <path
       d="M3787 2293 c-9 -8 -9 -133 0 -240 6 -79 7 -83 29 -83 23 0 24 3 24 70 0 67 1 70 24 70 19 0 30 -13 57 -67 28 -57 39 -69 62 -71 15 -2 27 -1 27 3 0 3 -16 35 -36 72 l-37 66 26 19 c53 38 43 123 -18 152 -33 16 -145 22 -158 9z m128 -53 c37 -14 43 -39 16 -62 -23 -18 -90 -26 -92 -10 -2 11 -2 45 -1 65 2 19 36 23 77 7z"
       id="path114"
       style="fill:#305d2c" />
  </g>
</svg>
